<?xml version="1.0" encoding="UTF-8" standalone="no"?>
<!-- Created with Inkscape (http://www.inkscape.org/) -->

<svg
   width="127mm"
   height="104mm"
   viewBox="0 0 127 104"
   version="1.1"
   id="svg1"
   xml:space="preserve"
   inkscape:export-filename="bitmap.svg"
   inkscape:export-xdpi="253.88914"
   inkscape:export-ydpi="253.88914"
   sodipodi:docname="kitty.svg"
   inkscape:version="1.3.2 (091e20e, 2023-11-25, custom)"
   xmlns:inkscape="http://www.inkscape.org/namespaces/inkscape"
   xmlns:sodipodi="http://sodipodi.sourceforge.net/DTD/sodipodi-0.dtd"
   xmlns="http://www.w3.org/2000/svg"
   xmlns:svg="http://www.w3.org/2000/svg"><sodipodi:namedview
     id="namedview1"
     pagecolor="#ffffff"
     bordercolor="#000000"
     borderopacity="0.25"
     inkscape:showpageshadow="2"
     inkscape:pageopacity="0.0"
     inkscape:pagecheckerboard="0"
     inkscape:deskcolor="#d1d1d1"
     inkscape:document-units="mm"
     inkscape:zoom="1.5382846"
     inkscape:cx="357.21608"
     inkscape:cy="272.05629"
     inkscape:window-width="3440"
     inkscape:window-height="1417"
     inkscape:window-x="1072"
     inkscape:window-y="1072"
     inkscape:window-maximized="1"
     inkscape:current-layer="layer1" /><defs
     id="defs1" /><g
     inkscape:label="Layer 1"
     inkscape:groupmode="layer"
     id="layer1"><path
       id="path17"
       style="fill:#000000;stroke-width:0.476929"
       d="m 75.12397,2.9944725 v 10e-4 l -5.2e-4,5.17e-4 v 5.17e-4 c -1.57322,-0.04837 -3.1362,0.289589 -4.59714,1.043864 -2.29561,1.185242 -4.69563,3.613243 -6.42131,6.4967615 -0.49231,0.822636 -0.61799,0.951933 -0.9462,0.972033 -0.20821,0.01272 -1.57129,0.0864 -3.02875,0.163298 -3.26286,0.17218 -8.056572,0.599358 -9.968384,0.888318 -0.416396,0.06293 -1.183239,0.176381 -1.703772,0.252181 -0.879036,0.12806 -1.329197,0.209698 -3.734655,0.676444 -1.185136,0.22997 -1.87096,0.109282 -3.343982,-0.587044 C 37.950739,11.28165 36.758984,10.77132 34.809632,10.089614 32.54943,9.2991975 29.547789,8.5554615 27.447807,8.2654355 c -0.555206,-0.07668 -1.283546,-0.192349 -1.618506,-0.257349 -3.608414,-0.700116 -6.336677,0.991602 -8.356079,5.1815965 -0.250856,0.520506 -0.529483,1.088442 -0.619083,1.261938 -0.08959,0.1735 -0.230993,0.542509 -0.314193,0.820105 -0.08319,0.27762 -0.204768,0.61825 -0.270268,0.75706 -0.303636,0.643926 -0.673647,2.152669 -1.129647,4.605924 -0.418676,2.25262 -0.413598,6.34791 0.01085,8.64391 0.07699,0.41642 0.196616,1.06936 0.265616,1.45108 0.14834,0.82046 0.345267,1.53678 0.861447,3.1352 0.503086,1.55806 0.491692,1.98445 -0.08372,3.09646 -1.219096,2.35611 -2.564185,5.38005 -2.564185,5.76554 0,0.0778 -0.07998,0.3208 -0.178284,0.5395 -0.181416,0.40378 -0.412301,1.22822 -0.852661,3.04736 -0.13441,0.55522 -0.295617,1.20816 -0.358117,1.45107 -0.06249,0.24291 -0.173614,0.89636 -0.247014,1.45159 -0.07338,0.55523 -0.198085,1.43491 -0.276985,1.95544 -0.07895,0.52052 -0.177422,2.08173 -0.219108,3.46904 -0.09018,3.00034 0.09046,2.76689 -2.295468,2.96468 -0.861206,0.0714 -1.963656,0.18518 -2.449462,0.25218 -0.48582,0.067 -1.366047,0.18436 -1.955953,0.26096 -2.876992,0.37365 -4.41626793,1.17849 -4.41626793,2.30891 0,1.02915 0.91384593,1.34304 3.04425793,1.04541 3.164048,-0.44204 7.897197,-0.60306 8.220687,-0.27957 0.09836,0.0984 0.250347,0.53873 0.337447,0.97824 0.22292,1.12482 0.752587,3.3881 0.881083,3.76411 0.05931,0.1735 0.180218,0.65638 0.268718,1.0728 0.08848,0.41642 0.201964,0.81375 0.251664,0.88315 0.1519,0.21194 0.251075,0.87566 0.150895,1.00976 -0.14478,0.19382 -0.597109,0.37873 -2.176611,0.88935 -0.798116,0.25801 -1.5649625,0.51471 -1.7037715,0.57051 -0.1388,0.0558 -0.3938975,0.13671 -0.5674075,0.17931 -1.659796,0.40794 -2.449693,1.552071 -1.692403,2.452051 0.361236,0.42933 1.220497,0.52686 2.3616125,0.2682 1.3658725,-0.30961 3.7555035,-0.68495 4.4064495,-0.69195 0.888746,-0.01 1.086896,0.16208 1.952852,1.69602 0.3332,0.59027 1.031314,1.6889 1.551844,2.4412 1.775412,2.56599 1.795212,2.30515 -0.26355,3.48868 -1.739686,0.99995 -4.208649,2.60514 -5.175395,3.36465 -1.596002,1.25386 -2.111637,2.78236 -1.133781,3.36 0.778326,0.45977 1.115662,0.33992 3.442684,-1.22318 2.501532,-1.68033 6.532439,-3.86075 7.137549,-3.86075 0.32466,0 0.763822,0.22406 1.120862,0.57154 0.0791,0.077 0.309013,0.27844 0.510563,0.44804 0.619236,0.52107 0.611311,0.56688 -0.237195,1.41128 -0.717676,0.71422 -2.120801,2.57794 -2.120801,2.81688 0,0.15656 -0.189088,0.25469 -0.554488,0.3328 0.0066,0.005 0.01062,0.0112 0.0093,0.0186 -0.0013,0.007 -0.02403,0.019 -0.05168,0.0315 -0.0014,0.0169 -0.01502,0.0315 -0.06976,0.0377 -0.0076,-4e-5 -0.012,0.002 -0.02274,-5.2e-4 -0.01746,0.006 -0.03572,0.0136 -0.04237,0.016 0.05688,0.15216 0.246025,0.20187 0.04393,0.38344 -0.03632,0.0331 -0.100564,0.0229 -0.146244,0.005 -0.01381,-0.005 -0.02862,-0.0293 -0.04082,-0.0501 -8.57e-4,-2.8e-4 -0.0017,2.9e-4 -0.0026,0 0.0037,0.008 0.0085,0.0142 0.0124,0.0217 l 0.0031,0.004 c -0.0011,-8.8e-4 -1.57e-4,-3.9e-4 -0.0016,-0.001 0.02757,0.0528 0.05775,0.10426 0.0863,0.15658 -0.05566,-0.003 -0.142575,-0.0603 -0.166915,-0.0103 -0.0333,0.0686 0.06281,0.1428 0.06511,0.2191 0.0016,0.0541 -0.0015,0.14117 -0.05426,0.15297 -0.102825,0.0231 -0.226432,-0.13635 -0.307992,-0.0713 -0.0077,0.008 -0.0061,0.0247 10e-4,0.0336 0.02818,0.0341 0.08201,0.0488 0.09974,0.0894 0.0076,0.0176 -0.03937,0.002 -0.05581,0.0124 -0.03955,0.023 -0.06053,0.0356 -0.06925,0.0465 0.05703,0.0365 0.14826,0.0548 0.19327,0.061 -0.01826,-0.002 -0.105464,-0.007 -0.150895,-0.01 0.0086,0.005 0.01552,0.009 0.02584,0.016 -0.005,0.0401 0.002,0.0845 -0.0155,0.12093 -0.02118,0.0439 -0.07652,0.0659 -0.09612,0.11058 -0.0037,0.008 -0.0053,0.0166 -0.0072,0.0253 -0.0025,0.007 0.0059,0.0156 0.0016,0.0222 -0.0011,0.002 -0.0045,-0.002 -0.0057,0 -0.004,0.0361 -0.0013,0.0742 -0.0098,0.10955 -0.01139,0.0471 -0.05731,0.0885 -0.04961,0.13643 0.0082,0.0515 0.08537,0.0753 0.09147,0.12712 0.0033,0.0282 -0.04751,0.0306 -0.07131,0.046 -0.101553,0.0455 -0.140567,0.0215 -0.128157,0.13178 0.0048,0.0424 0.03741,0.0819 0.03101,0.12402 -0.0055,0.0363 -0.04886,0.0567 -0.06356,0.0904 -0.05924,0.1356 -0.04521,0.19844 -0.04961,0.34727 0.04612,0.46104 0.04961,0.13468 -0.06925,0.21911 0.04805,0.0311 0.09544,0.063 0.141076,0.0951 0.163895,0.11515 0.01777,0.25035 0.02067,0.36949 0.0011,0.0462 0.03306,0.0866 0.04961,0.12971 -0.02942,0.0834 0.08431,0.16894 0.05891,0.25114 -0.01646,0.0533 -0.08867,0.0751 -0.110071,0.12661 -0.06657,0.16031 0.05848,0.0999 0.05478,0.24598 -9.9e-4,0.0393 -0.03749,0.069 -0.05633,0.10335 0.03415,0.0356 0.09512,0.0582 0.10232,0.10697 0.0055,0.0374 -0.05992,0.0511 -0.0739,0.0863 -0.03124,0.0786 0.04818,0.10729 0.04548,0.18139 -0.0012,0.0336 -0.05643,0.0581 -0.04548,0.0899 0.0133,0.0386 0.0667,0.0465 0.100253,0.0698 0.0026,0.0788 -0.101721,0.10783 -0.111621,0.17673 -0.0045,0.0313 0.05384,0.0464 0.05323,0.078 -4.4e-4,0.0229 -0.04357,0.0209 -0.05581,0.0403 -0.0059,0.009 0.01285,0.0201 0.01085,0.031 -0.0046,0.0252 -0.01966,0.0476 -0.02946,0.0713 -0.0091,0.009 -0.0083,0.008 -0.01447,0.014 0.0024,0.0164 0.0037,0.0339 0.0057,0.0506 3.6e-4,0.002 8.65e-4,0.004 10e-4,0.007 0.0061,0.0533 0.01591,0.10311 0.01809,0.1602 0.01626,0.0293 0.01654,0.0485 0.0072,0.062 7e-5,0.005 0.0015,0.009 0.0016,0.0145 0.0082,1.08259 0.07851,2.08213 0.163814,2.33474 0.08205,0.24291 0.219524,0.69692 0.305924,1.00924 1.008196,3.64402 4.548203,6.930979 8.062557,7.486879 2.160162,0.34171 4.722797,-0.19138 7.134449,-1.48466 1.050586,-0.56339 1.050281,-0.56335 1.784387,-0.39274 6.161216,1.4319 10.67915,-0.84425 12.763045,-6.429579 0.20715,-0.55523 0.413787,-1.22541 0.458887,-1.48932 0.10841,-0.63459 0.169768,-0.64726 2.048454,-0.41496 6.387945,0.78988 16.344855,1.04997 22.436865,0.58601 0.83283,-0.0634 2.03951,-0.15587 2.68149,-0.20567 1.04484,-0.0811 1.16737,-0.0683 1.16737,0.12144 0,0.11657 0.11046,0.54082 0.24598,0.94309 1.984721,5.891569 6.604051,8.355759 12.914981,6.889499 0.73182,-0.17003 0.73192,-0.16988 1.89291,0.44339 2.93709,1.55151 6.369983,1.96564 8.606179,1.03869 3.25624,-1.34977 5.3936,-3.692339 6.5288,-7.155119 0.35022,-1.06817 0.48552,-2.42324 0.47542,-4.76353 -1e-5,-0.004 0.0392,-0.005 0.0486,-0.009 -0.036,-0.24243 0.16558,0.024 -0.13539,-0.27957 -0.0259,-0.17059 -0.0352,-0.24358 -0.0398,-0.28319 0.012,0.11828 0.0249,0.41928 -0.19069,-0.12815 -0.029,-0.0738 0.029,-0.15645 0.032,-0.23565 0.004,-0.0981 -0.0161,-0.23478 -0.0594,-0.32608 -0.0179,-0.0376 -0.048,-0.0679 -0.0724,-0.1018 -0.0159,-0.035 -0.0376,-0.0679 -0.0481,-0.1049 -0.0127,-0.0431 0.005,-0.0955 -0.0196,-0.13281 -0.0307,-0.0465 -0.10284,-0.0524 -0.13384,-0.0987 -0.0296,-0.0439 -0.0181,-0.10502 -0.0367,-0.15452 -0.1084,-0.28955 -0.059,0.007 -0.0899,-0.29042 -0.006,-0.0456 -0.0131,-0.0913 -0.0181,-0.13694 -0.005,-0.0372 0.0137,-0.0829 -0.0103,-0.11162 -0.0302,-0.0362 -0.10611,-0.0154 -0.12971,-0.0563 -0.0172,-0.0298 0.0339,-0.0614 0.0429,-0.0946 0.004,-0.0143 1e-5,-0.0294 -0.005,-0.0434 -0.005,-0.0153 -0.0168,-0.029 -0.0248,-0.0429 -0.0488,-0.0173 -0.0633,-0.0132 -0.094,-0.0651 -0.0136,-0.023 -0.0184,-0.0499 -0.0274,-0.0749 -0.007,-0.0184 -0.009,-0.0393 -0.0207,-0.0553 -0.0675,-0.0937 -0.0523,-6.2e-4 -0.0553,-0.0997 0.13464,-0.19435 0.0557,-0.0313 -0.003,-0.0832 -0.0116,-0.01 0.0411,-0.004 0.0419,-0.0196 8e-4,-0.0159 -0.0291,-0.0132 -0.0398,-0.0248 -0.0679,-0.0737 0.0638,-0.0208 -0.10387,-0.0589 0.0178,-0.0661 0.0332,-0.0824 0.002,-0.15296 -0.0135,-0.0309 -0.043,-0.0534 -0.0568,-0.0842 -0.16586,-0.36997 0.086,0.1342 -0.0315,-0.20722 -0.0147,-0.0429 -0.0475,-0.0766 -0.0713,-0.11524 0.0545,-0.064 0.0825,-0.0942 0.0961,-0.10748 -0.0196,0.0147 -0.0579,0.0305 -0.0393,-0.0739 -0.6919,-1.19668 -1.62037,-2.44602 -2.46032,-3.27474 -1.05168,-1.03757 -1.05146,-1.03754 0.68575,-2.87062 2.25052,-2.3748 1.82357,-2.3573 6.34742,-0.26097 1.85424,0.85927 2.58562,1.17344 3.7207,1.59887 1.90482,0.71395 3.40661,-0.18057 2.69596,-1.6061 -0.40404,-0.8104 -0.75166,-1.05749 -3.34708,-2.38229 -3.92178,-2.00168 -5.13397,-2.70261 -5.26428,-3.04219 -0.0377,-0.0984 0.19908,-0.73555 0.52658,-1.41593 0.83756,-1.74016 1.23651,-2.722931 1.6831,-4.148591 0.46256,-1.47666 0.89823,-1.61001 3.89692,-1.19165 2.462,0.3435 2.92644,0.38715 4.16409,0.39015 1.70144,0.005 2.18864,-0.1951 2.24844,-0.92242 0.0444,-0.53943 -0.65214,-1.37024 -1.2578,-1.50069 -0.16314,-0.0351 -1.17683,-0.29198 -2.25258,-0.57102 -1.07574,-0.27903 -2.35328,-0.57784 -2.8391,-0.66404 -2.56689,-0.45528 -2.65208,-0.57449 -2.33061,-3.26337 0.0715,-0.59777 0.20709,-1.89914 0.30179,-2.89181 0.25048,-2.62672 -0.22753,-2.43469 6.03426,-2.42569 4.78581,0.007 5.27549,-0.058 5.6441,-0.74673 0.26643,-0.49781 -0.27203,-1.33534 -1.14515,-1.78077 -0.76344,-0.38949 -3.59223,-0.69452 -7.71374,-0.83199 -3.09881,-0.10337 -2.89053,0.0503 -3.02152,-2.2288 -0.0526,-0.9153 -0.14776,-1.97685 -0.21136,-2.35852 -0.21438,-1.28713 -0.66435,-3.32561 -0.78342,-3.5481 -0.065,-0.12148 -0.11833,-0.32077 -0.11833,-0.44287 0,-0.24454 -0.51343,-2.02145 -0.87024,-3.01222 -0.65397,-1.81606 -0.65653,-1.71629 0.0641,-2.79053 0.49078,-0.73186 0.91086,-1.5353 1.5751,-3.01428 0.0623,-0.13881 0.24768,-0.67838 0.41238,-1.19889 1.60854,-5.08389 0.40721,-9.69079 -3.27784,-12.56978 -1.02386,-0.7999 -1.02391,-0.80007 -1.16944,-2.2226 -0.31403,-3.069525 -0.42429,-3.961095 -0.5364,-4.337204 -0.0641,-0.215134 -0.17111,-0.726363 -0.23771,-1.135848 -0.51452,-3.165696 -2.16137,-6.7661705 -3.76514,-8.2315395 -1.06925,-0.976986 -1.54239,-1.09399 -4.43487,-1.09399 -3.245229,0 -5.166069,0.312859 -9.968899,1.623674 -1.07211,0.292639 -3.18337,1.04913 -4.44055,1.591117 -1.26018,0.543269 -1.32588,0.542 -1.74666,-0.03462 -2.57536,-3.529381 -6.084891,-5.50598 -9.545671,-5.612577 z m 24.798474,6.352067 c 1.016476,-0.0507 1.828756,0.01906 2.334736,0.230477 0.88915,0.371496 2.0768,2.3046665 2.60708,4.2436685 0.0854,0.31232 0.2115,0.737986 0.2806,0.946196 0.29922,0.902196 0.95606,5.303519 0.81287,5.446699 -0.0262,0.0262 -0.83645,0.0694 -1.80092,0.0961 -2.19404,0.0607 -4.304586,0.37175 -6.577879,0.96893 -1.41719,0.37225 -1.51162,0.35075 -2.62103,-0.59015 -1.05894,-0.89808 -3.5192,-2.038332 -5.13612,-2.380728 -0.56513,-0.11966 -0.96425,-0.579389 -1.15704,-1.332219 -0.0977,-0.381706 -0.46529,-1.427966 -0.81649,-2.324922 -0.71882,-1.835796 -0.7239,-1.765121 0.154,-2.153357 3.98168,-1.760903 8.87076,-2.9986305 11.920193,-3.1507125 z M 25.631898,12.117947 c 0.916741,-0.01041 1.908754,0.04565 2.509924,0.173116 1.281616,0.271736 3.434271,0.875592 4.378027,1.227832 0.47225,0.17626 1.000589,0.364812 1.174089,0.419612 1.275772,0.4028 4.839136,2.12599 6.659542,3.220476 1.790232,1.076356 2.604035,1.177092 4.697387,0.580326 2.329962,-0.664236 6.294698,-1.179435 12.681913,-1.647961 0.97164,-0.07127 2.17832,-0.163973 2.68149,-0.205673 1.11714,-0.09261 1.10453,-0.144047 0.43253,1.786455 -0.49118,1.4111 -0.63113,1.99973 -0.9679,4.06693 -0.91207,5.59844 1.36045,11.01244 5.40897,12.88604 3.15875,1.46174 6.36658,1.44013 10.8133,-0.0718 2.11521,-0.71927 2.18832,-0.70796 2.93212,0.44183 1.559311,2.41042 5.467301,4.79351 7.911661,4.82451 0.95432,0.0121 1.17291,0.19132 2.20607,1.81229 4.98957,7.82923 11.541529,8.8137 18.614869,2.79673 0.94804,-0.80642 1.00886,-0.80907 1.2392,-0.061 0.37536,1.21975 0.80699,2.86418 0.91674,3.4923 0.0637,0.36436 0.17406,0.98896 0.24546,1.38803 0.20701,1.15745 0.37316,3.33546 0.29146,3.81682 -0.13134,0.77383 -0.22003,0.82551 -2.25103,1.30741 -0.41643,0.0988 -1.01267,0.21799 -1.32498,0.26459 -2.22623,0.33221 -3.28094,0.99083 -3.28094,2.04897 0,1.36621 0.92491,1.61837 4.09071,1.11466 3.03777,-0.48333 2.91633,-0.5687 2.79828,1.96628 -0.0481,1.03253 -0.1355,2.0339 -0.1943,2.22519 -0.0588,0.19127 -0.17982,0.76467 -0.26872,1.27434 -0.20004,1.14691 -0.34607,1.26185 -1.63091,1.28365 -2.14285,0.0364 -2.99346,0.44941 -2.86701,1.39216 0.10182,0.75911 0.57839,1.12096 2.15181,1.63452 1.43784,0.46931 1.41131,0.71117 -0.4961,4.559421 -1.17651,2.37378 -1.15841,2.36065 -2.8267,2.08359 -2.00215,-0.33254 -2.60428,-0.23946 -3.07268,0.47542 -0.51185,0.78118 -0.0592,1.71294 1.11053,2.28513 1.26383,0.61833 1.23988,0.75689 -0.43202,2.50011 -1.35657,1.41459 -1.34715,1.40976 -2.173506,1.08314 -8.854023,-3.49968 -19.065973,0.23078 -21.101024,7.70805 -0.12278,0.45111 -0.26678,0.90515 -0.31988,1.00925 -0.10453,0.20503 -1.34012,0.37521 -4.67465,0.64285 -2.2658,0.18185 -11.47411,0.25257 -13.18679,0.10129 -0.69407,-0.0613 -2.36943,-0.20185 -3.72277,-0.31213 -1.35333,-0.11029 -2.744276,-0.24771 -3.091286,-0.30541 -0.34702,-0.0577 -1.247662,-0.17808 -2.001428,-0.26768 -1.567896,-0.18633 -1.517944,-0.1474 -2.013314,-1.57665 -0.821766,-2.37106 -2.521509,-4.41446 -4.944401,-5.94486 -4.400734,-2.77955 -10.988043,-3.15079 -16.241903,-0.91519 -0.998296,0.42483 -0.989731,0.42634 -1.924947,-0.3948 -0.731236,-0.64206 -0.576099,-0.97185 0.741557,-1.5751 1.869502,-0.8559 2.296038,-2.29739 0.857312,-2.89853 -0.550296,-0.22993 -1.019063,-0.14722 -3.041675,0.5364 -1.831492,0.61903 -2.01618,0.6084 -2.803446,-0.1571 -0.825756,-0.80292 -1.437376,-1.63002 -2.162142,-2.92488 -1.091106,-1.949391 -1.092996,-2.233171 -0.01912,-2.540421 2.576448,-0.73716 3.327888,-1.35251 2.816882,-2.30735 -0.27869,-0.52122 -0.837522,-0.6194 -3.001884,-0.5302 -2.008082,0.0828 -2.008104,0.0826 -2.313554,-0.40979 -0.563276,-0.90801 -1.740979,-5.09819 -1.740979,-6.19446 0,-0.55974 0.247443,-0.6072 3.163631,-0.6072 3.270428,0 3.397726,-0.0479 3.397726,-1.27279 0,-1.23435 -1.265538,-1.70255 -5.460132,-2.01848 -1.478116,-0.11133 -1.606104,-0.25835 -1.606104,-1.8464 0,-1.49788 0.221714,-3.97329 0.460954,-5.14697 0.10611,-0.52052 0.241023,-1.23015 0.299723,-1.57716 0.12343,-0.73007 0.703696,-3.03487 0.805636,-3.19981 0.03795,-0.0614 0.151715,-0.41677 0.253215,-0.79013 0.170906,-0.62871 0.583499,-1.85142 0.824755,-2.44533 0.05639,-0.13881 0.259729,-0.65002 0.452169,-1.13585 0.829966,-2.09537 1.78375,-3.88574 3.363102,-6.31227 0.58629,-0.90079 1.196747,-1.91113 1.356507,-2.24534 0.889796,-1.8615 -0.685273,-3.36095 -2.336809,-2.22468 -0.783886,0.53933 -1.023235,0.28159 -1.472261,-1.58439 -1.493826,-6.20749 0.7131,-14.971945 4.169254,-16.557131 0.30024,-0.13771 1.142035,-0.214379 2.05879,-0.224792 z M 37.941224,58.50529 c -0.274292,0.0185 -0.558486,0.0699 -0.851111,0.15555 -3.430698,1.00393 -3.930297,7.86045 -0.683163,9.37565 3.019708,1.40921 5.767038,-1.52681 5.227588,-5.58673 -0.344701,-2.59438 -1.773296,-4.07409 -3.693314,-3.94447 z m 50.893537,0.0977 c -0.89532,-0.0638 -1.81413,0.22095 -2.5244,0.93121 -2.35,2.35 -1.77452,7.47735 0.95912,8.5447 3.31951,1.29616 5.59983,-1.86291 4.77593,-6.61665 -0.29111,-1.67969 -1.71858,-2.75298 -3.21065,-2.85926 z m -25.003651,8.785 c -2.90751,0.0301 -5.7831,1.59279 -5.7831,4.324801 0,2.18667 1.68287,3.89468 4.31033,4.37441 5.05498,0.92284 8.74205,-2.1504 6.97838,-5.817221 -0.96284,-2.00184 -3.2441,-2.90539 -5.50561,-2.88199 z M 36.225049,82.548301 c 2.968383,0.14231 6.211217,1.19761 7.879623,2.72542 0.20821,0.19052 0.411235,0.34694 0.451135,0.34726 0.13198,0.001 1.337272,1.56727 1.651062,2.14561 1.096166,2.02078 1.093066,4.9834 -0.0088,7.34373 -1.448776,3.1042 -4.677584,4.35119 -8.598958,3.32125 -1.654766,-0.43462 -2.058136,-0.41661 -2.900082,0.12971 -1.121346,0.72761 -2.388735,1.30162 -3.465938,1.569409 -2.816021,0.69963 -5.395752,-0.353509 -7.035746,-2.872179 -3.958544,-6.07926 0.269741,-12.74433 9.219075,-14.53193 0.859996,-0.17178 1.819153,-0.22572 2.808614,-0.17828 z m 57.394432,0.0775 c 4.48283,0.21597 9.030719,2.2391 11.280949,6.22805 2.4274,4.30287 0.10501,10.14377 -4.51083,11.346079 -1.781999,0.46415 -3.924069,-0.0526 -6.268339,-1.511539 -1.09912,-0.684 -1.37767,-0.70729 -3.06287,-0.2589 -5.71518,1.5207 -9.96918,-2.11022 -9.38754,-8.01295 0.52804,-5.35867 6.18481,-8.0684 11.94863,-7.79074 z" /><path
       style="fill:#000000;stroke-width:0.0429998"
       d="m 62.822613,77.311023 c -2.456314,-0.340699 -4.149396,-1.592318 -4.649917,-3.437478 -0.126203,-0.465248 -0.137244,-1.451244 -0.02093,-1.870487 0.256185,-0.923499 0.848407,-1.704459 1.74534,-2.301571 2.225878,-1.481825 5.646808,-1.496915 7.835254,-0.03455 0.901353,0.602301 1.611085,1.610016 1.88224,2.672501 0.586571,2.298406 -1.036891,4.323972 -3.93809,4.913471 -0.608745,0.123696 -2.154203,0.155165 -2.853885,0.05812 z"
       id="path36" /><path
       style="fill:#000000;stroke-width:0.0429998"
       d="m 62.804241,77.30816 c -2.42983,-0.337696 -4.14301,-1.607833 -4.632653,-3.434615 -0.125024,-0.466439 -0.135491,-1.45357 -0.01984,-1.870487 0.256185,-0.923499 0.848408,-1.704459 1.74534,-2.301571 2.21276,-1.473094 5.616747,-1.497711 7.805989,-0.05645 1.361408,0.896263 2.213321,2.633342 2.001599,4.081322 -0.254371,1.739641 -1.771748,3.068061 -4.028183,3.526549 -0.617821,0.125537 -2.153928,0.155088 -2.872259,0.05526 z"
       id="path37" /><path
       style="fill:#000000;stroke-width:0.0429998"
       d="M 62.804241,77.305927 C 60.39096,76.982 58.661265,75.700451 58.171588,73.873545 c -0.125024,-0.466439 -0.135491,-1.45357 -0.01984,-1.870487 0.256185,-0.923499 0.848408,-1.704459 1.74534,-2.301571 2.213073,-1.4733 5.621152,-1.498148 7.805989,-0.05691 1.362456,0.89875 2.213311,2.633867 2.001599,4.081775 -0.115488,0.789816 -0.470487,1.462339 -1.099103,2.082178 -0.801301,0.790115 -1.933673,1.306881 -3.294499,1.503469 -0.577085,0.08337 -1.863709,0.08025 -2.50684,-0.0061 z"
       id="path38" /><path
       style="fill:#000000;stroke-width:0.0429998"
       d="m 63.102111,77.347776 c -0.729025,-0.06693 -1.648563,-0.30221 -2.297789,-0.587933 -1.345277,-0.592056 -2.292102,-1.630408 -2.631872,-2.886298 -0.137086,-0.5067 -0.138739,-1.455615 -0.0034,-1.926351 0.258032,-0.897208 0.841555,-1.655572 1.727909,-2.245643 2.293602,-1.526911 5.907876,-1.488041 8.005294,0.0861 1.269804,0.953005 2.004325,2.557658 1.802519,3.937828 -0.11562,0.790728 -0.470366,1.462974 -1.099232,2.083059 -0.801302,0.790115 -1.933673,1.306881 -3.2945,1.503469 -0.421137,0.06084 -1.708803,0.08169 -2.208969,0.03577 z"
       id="path39" /><path
       style="fill:#000000;stroke-width:0.0429998"
       d="m 62.93427,77.329057 c -2.490822,-0.319617 -4.18007,-1.523654 -4.74015,-3.378613 -0.100359,-0.332391 -0.114583,-0.455568 -0.1181,-1.022892 -0.0034,-0.548749 0.01045,-0.69504 0.09276,-0.980358 0.391906,-1.358337 1.587116,-2.44679 3.283018,-2.989771 2.245678,-0.719002 4.829347,-0.386466 6.450494,0.830223 1.271458,0.954246 2.004589,2.555859 1.802519,3.937828 -0.11562,0.790728 -0.470366,1.462974 -1.099232,2.083059 -0.801302,0.790115 -1.933673,1.306881 -3.2945,1.503469 -0.502504,0.07259 -1.867646,0.08239 -2.37681,0.01706 z"
       id="path40" /><path
       style="fill:#000000;stroke-width:0.0429998"
       d="m 62.93427,77.329057 c -2.490822,-0.319617 -4.18007,-1.523654 -4.74015,-3.378613 -0.100415,-0.332573 -0.11456,-0.455255 -0.117925,-1.022892 -0.0043,-0.726882 0.04683,-0.990288 0.293775,-1.513208 0.194482,-0.411824 0.436716,-0.761902 0.74087,-1.070711 2.082398,-2.114272 6.380483,-2.373182 8.824479,-0.531577 1.243345,0.93689 1.969799,2.543519 1.769493,3.913418 -0.11562,0.790728 -0.470366,1.462974 -1.099232,2.083059 -0.801302,0.790115 -1.933673,1.306881 -3.2945,1.503469 -0.502504,0.07259 -1.867646,0.08239 -2.37681,0.01706 z"
       id="path41" /><path
       style="fill:#000000;stroke-width:0.051713"
       d="m 62.59305,77.239574 c -0.97254,-0.1384 -2.0445,-0.45325 -2.74124,-0.80514 -1.97404,-0.99699 -3.10187,-2.8185 -2.97684,-4.8078 0.0402,-0.63937 0.13789,-1.00521 0.42449,-1.58946 0.6455,-1.31588 1.92835,-2.30384 3.73295,-2.87486 0.92689,-0.29329 1.74404,-0.41403 2.80654,-0.41469 0.99816,-6.4e-4 1.49137,0.0568 2.35011,0.27368 2.38357,0.60199 4.04464,2.13541 4.58349,4.23128 0.714,2.77714 -1.30731,5.25809 -4.83923,5.93962 -0.58197,0.1123 -2.67541,0.14199 -3.34027,0.0474 z"
       id="path42" /><path
       style="fill:#ffff00;stroke-width:0.0218711"
       d="m 63.15414,74.913294 c -0.59296,-0.0622 -1.44187,-0.3301 -1.90008,-0.59976 -1.00003,-0.58857 -1.58408,-1.52804 -1.59007,-2.55776 -0.004,-0.74162 0.24887,-1.33029 0.81422,-1.89309 0.49798,-0.49574 1.11633,-0.82662 1.94085,-1.03857 1.28827,-0.33116 2.66155,-0.20304 3.77094,0.35176 0.92027,0.46024 1.59599,1.3249 1.80832,2.31396 0.0568,0.26457 0.0517,0.77266 -0.0104,1.02198 -0.18028,0.72491 -0.65072,1.34142 -1.3619,1.78479 -0.39855,0.24845 -0.97757,0.46819 -1.48693,0.5643 -0.36924,0.0696 -1.52826,0.10025 -1.98501,0.0524 z"
       id="path45" /><path
       style="fill:#f9f9f9;stroke-width:0.650075"
       d="m 220.37534,339.34472 c -24.02576,-2.15215 -31.20358,-3.45847 -31.20358,-5.67886 0,-2.27731 -6.17414,-13.12924 -9.53538,-16.75978 -10.33217,-11.15997 -23.45656,-16.645 -41.49549,-17.34204 -10.88424,-0.42058 -17.87054,0.60051 -27.39146,4.00342 l -6.36711,2.27569 -2.46044,-1.70509 c -3.493153,-2.42075 -3.196328,-3.6601 1.47261,-6.14861 6.67063,-3.55541 8.57784,-8.38153 4.3554,-11.02118 -2.54101,-1.58851 -4.19149,-1.42203 -13.10589,1.322 -4.347171,1.33814 -6.687124,1.76682 -7.427789,1.36078 -4.504541,-2.46947 -14.632214,-17.6287 -13.590726,-20.34277 0.183131,-0.47724 2.048801,-1.40548 4.145932,-2.06276 9.10022,-2.85219 12.076302,-6.1031 8.688526,-9.49088 -1.166951,-1.16695 -2.166916,-1.30015 -9.760676,-1.30015 H 68.23874 l -1.302114,-2.11274 c -2.523189,-4.094 -7.385102,-22.54852 -6.242832,-23.69612 0.284217,-0.28554 5.421996,-0.66543 11.417287,-0.8442 12.145157,-0.36215 13.048713,-0.66322 13.048713,-4.34783 0,-5.55309 -3.378579,-7.12467 -18.516742,-8.61325 -4.956553,-0.4874 -6.700594,-0.91324 -7.379984,-1.80199 -1.808401,-2.36566 0.176499,-23.11581 3.43818,-35.94276 2.814768,-11.06941 8.926777,-27.4396 12.863805,-34.45397 1.103745,-1.96647 4.481803,-7.60165 7.506795,-12.52263 6.657614,-10.83041 7.333053,-13.53586 4.169221,-16.69969 -2.370981,-2.37098 -5.148361,-2.60235 -8.247388,-0.68704 -2.048376,1.26596 -2.118245,1.26752 -3.200684,0.0714 -3.196228,-3.53179 -4.704612,-24.281228 -2.633168,-36.222029 2.661656,-15.34306 8.840896,-27.811772 15.485892,-31.248033 2.83766,-1.467411 14.821049,-1.413091 20.566839,0.09323 14.37829,3.769421 28.86106,9.766081 44.74584,18.52722 5.83246,3.216852 8.67664,3.370869 18.43251,0.998151 3.68758,-0.896852 11.09269,-2.21006 16.45581,-2.91824 10.89431,-1.438556 41.92714,-4.121462 42.38432,-3.664286 0.16191,0.161911 -0.59328,3.065486 -1.67821,6.452391 -3.10905,9.705839 -4.19247,17.483168 -3.81417,27.379951 0.37775,9.882075 2.09363,16.289065 6.15678,22.989035 7.18574,11.84898 18.32797,17.79701 33.33506,17.79518 7.48651,-9.1e-4 12.82518,-0.95331 22.22836,-3.96542 3.4014,-1.08956 6.64894,-1.98102 7.21677,-1.98102 0.56782,0 2.35369,1.71711 3.9686,3.81582 3.83257,4.98072 8.68628,9.2995 13.99754,12.45485 4.68405,2.78274 10.98689,5.17973 13.63501,5.18542 4.84836,0.0104 6.20253,1.0117 11.19977,8.28108 13.23805,19.25712 27.51247,26.80392 44.11733,23.32454 6.55246,-1.37299 16.57685,-6.44849 23.31188,-11.80315 2.98915,-2.37651 5.67292,-4.07529 5.96394,-3.77505 1.69904,1.75282 5.45005,19.10786 6.17792,28.58383 0.58632,7.63328 0.22977,8.04722 -8.5773,9.95763 -14.12719,3.06446 -17.12531,4.6738 -17.12531,9.19261 0,1.73179 0.44392,2.98644 1.39221,3.93473 1.3274,1.3274 1.74361,1.36871 8.93853,0.88724 4.15047,-0.27773 9.30151,-0.53856 11.44676,-0.57962 l 3.90045,-0.0747 0.19982,4.22549 c 0.37641,7.95937 -1.71731,19.15665 -3.77523,20.19011 -0.53631,0.26932 -3.53963,0.76885 -6.67405,1.11006 -6.4289,0.69983 -8.27767,1.78941 -8.27767,4.87844 0,2.55156 2.50986,4.78144 7.47586,6.6419 3.87911,1.45329 3.90019,1.47532 3.85316,4.02829 -0.0528,2.86407 -6.49741,17.00649 -8.93082,19.59817 -1.34959,1.43737 -1.69169,1.4897 -6.62369,1.01331 -7.71338,-0.74506 -9.52394,-0.51825 -11.21379,1.40472 -2.73432,3.11154 -1.29814,6.77666 3.82875,9.77093 1.73776,1.0149 3.15956,2.22174 3.15956,2.68186 0,1.21047 -9.0822,10.59162 -10.25409,10.59162 -0.54327,0 -3.65081,-0.85193 -6.90566,-1.89319 -8.39455,-2.68549 -15.24389,-3.53328 -25.31324,-3.13322 -16.34424,0.64938 -28.35243,5.35907 -38.75714,15.20081 -5.61445,5.31065 -9.03042,10.64701 -11.43235,17.85936 -1.6266,4.88425 -1.73522,5.02835 -4.07255,5.40302 -12.77669,2.04806 -56.16632,2.84996 -72.93449,1.34792 z m 29.77511,-47.47752 c 11.83808,-2.69583 19.44735,-11.39695 18.05962,-20.65098 -1.81473,-12.1015 -13.87552,-20.04298 -29.01774,-19.10688 -18.96516,1.17244 -29.66233,14.92537 -22.23025,28.58056 2.92394,5.37224 7.89584,8.75661 15.97534,10.87442 5.74064,1.50474 11.49105,1.60593 17.21303,0.30288 z M 149.6456,257.02086 c 5.18557,-2.60622 8.7656,-11.00195 8.12792,-19.0612 -0.65156,-8.23468 -3.60106,-13.78823 -8.5059,-16.01561 -7.2938,-3.31225 -15.3106,0.73572 -18.50616,9.34443 -1.88309,5.07295 -1.92741,13.29728 -0.098,18.18679 3.0576,8.17218 11.25331,11.43006 18.98215,7.54559 z m 191.68588,-0.0884 c 5.52827,-3.7255 8.33842,-12.05933 7.21098,-21.38502 -0.75196,-6.21998 -2.31145,-9.38368 -5.86181,-11.89174 -3.71985,-2.62778 -9.66051,-3.0877 -13.64259,-1.0562 -9.31201,4.75064 -11.6423,22.53076 -4.10671,31.33438 2.90341,3.392 5.25821,4.41341 10.24857,4.44542 3.07353,0.0197 4.45882,-0.3061 6.15156,-1.44684 z"
       id="path1"
       transform="scale(0.26458333)" /><path
       style="fill:#f9f9f9;stroke-width:0.650075"
       d="m 103.59367,377.31493 c -6.60761,-2.54111 -13.036095,-10.06723 -15.868151,-18.57756 -1.15578,-3.47312 -1.367119,-5.34143 -1.153792,-10.19996 0.302262,-6.88403 2.273283,-11.92257 6.979482,-17.84171 5.565144,-6.99945 17.201691,-13.70786 29.132621,-16.79478 5.55886,-1.43827 7.29361,-1.60455 13.83187,-1.32585 24.13902,1.02893 40.9983,14.44743 40.9451,32.58869 -0.0228,7.75904 -3.80139,17.20913 -8.62279,21.56498 -6.06125,5.47598 -15.69949,7.44207 -25.37435,5.17609 -7.19031,-1.68407 -9.32271,-1.42491 -15.555,1.89048 -3.0269,1.61022 -6.93599,3.36226 -8.68688,3.89342 -4.50175,1.36568 -11.5429,1.19727 -15.62811,-0.3738 z"
       id="path2"
       transform="scale(0.26458333)" /><path
       style="fill:#f9f9f9;stroke-width:0.650075"
       d="m 370.88603,378.55916 c -4.13708,-0.60692 -7.96114,-2.052 -13.72541,-5.1867 -5.2459,-2.85281 -7.47991,-3.081 -14.36836,-1.46763 -6.99603,1.63857 -14.58177,1.04348 -19.86724,-1.55855 -7.08245,-3.48668 -11.91955,-10.05283 -13.48446,-18.30457 -2.80615,-14.79675 3.76868,-27.39349 17.82189,-34.14506 8.00796,-3.84726 14.34985,-5.19763 24.10296,-5.13221 21.00525,0.14089 38.97006,10.35527 46.08103,26.20065 8.46407,18.86044 -7.33627,42.41429 -26.56041,39.59407 z"
       id="path3"
       transform="scale(0.26458333)" /><path
       style="fill:#f9f9f9;stroke-width:0.650075"
       d="m 359.61357,78.26308 c -3.96133,-3.039962 -13.93476,-7.927617 -18.5037,-9.068066 -3.05088,-0.761528 -5.67129,-3.033182 -5.67129,-4.916484 0,-0.483256 -1.17642,-4.010611 -2.61427,-7.838565 -2.11058,-5.618957 -2.45501,-7.116449 -1.7877,-7.772356 1.20654,-1.185927 13.39136,-5.803046 21.29567,-8.069439 11.00562,-3.155625 19.3164,-4.653868 26.36276,-4.7526 7.8203,-0.109576 8.94942,0.437642 12.61946,6.115905 4.02306,6.224459 6.35233,14.635875 8.73935,31.559472 l 0.37558,2.662798 -8.28014,0.411246 c -8.42931,0.418654 -15.53969,1.455189 -22.68713,3.307275 -5.51216,1.428345 -5.94527,1.356261 -9.84859,-1.639186 z"
       id="path4"
       transform="scale(0.26458333)" /></g></svg>
